<?xml version="1.0" ?><svg baseProfile="tiny" height="24px" id="Layer_1" version="1.2" viewBox="0 0 24 24" width="24px" xml:space="preserve" xmlns="http://www.w3.org/2000/svg" xmlns:xlink="http://www.w3.org/1999/xlink"><g><g><path d="M15,19c-1.342,0-2.685-0.511-3.707-1.532c-1.266-1.265-3.323-1.264-4.586,0c-0.391,0.391-1.023,0.391-1.414,0    s-0.391-1.023,0-1.414c2.043-2.043,5.369-2.043,7.414,0c1.265,1.264,3.322,1.263,4.586,0c0.391-0.391,1.023-0.391,1.414,0    s0.391,1.023,0,1.414C17.686,18.489,16.343,19,15,19z"/></g></g><g><g><path d="M15,15c-1.342,0-2.685-0.511-3.707-1.532c-1.266-1.265-3.323-1.264-4.586,0c-0.391,0.391-1.023,0.391-1.414,0    s-0.391-1.023,0-1.414c2.043-2.043,5.369-2.043,7.414,0c1.265,1.264,3.322,1.263,4.586,0c0.391-0.391,1.023-0.391,1.414,0    s0.391,1.023,0,1.414C17.686,14.489,16.343,15,15,15z"/></g></g><g><g><path d="M15,11c-1.342,0-2.685-0.511-3.707-1.532c-1.266-1.265-3.323-1.264-4.586,0c-0.391,0.391-1.023,0.391-1.414,0    s-0.391-1.023,0-1.414c2.043-2.042,5.369-2.044,7.414,0c1.265,1.264,3.322,1.263,4.586,0c0.391-0.391,1.023-0.391,1.414,0    s0.391,1.023,0,1.414C17.686,10.489,16.343,11,15,11z"/></g></g></svg>